<svg width="50" height="48" viewBox="0 0 50 48" fill="none" xmlns="http://www.w3.org/2000/svg">
<g clip-path="url(#clip0_104_2)">
<g clip-path="url(#clip1_104_2)">
<path d="M23.8875 12.0385C21.3335 12.0385 19.2554 14.0486 19.2554 16.5192C19.2554 18.9898 21.3334 21 23.8875 21C26.4416 21 28.5195 18.9899 28.5195 16.5192C28.5194 14.0484 26.4415 12.0385 23.8875 12.0385ZM23.8875 19.3487C22.2747 19.3487 20.9624 18.0793 20.9624 16.5191C20.9624 14.9589 22.2746 13.6896 23.8875 13.6896C25.5003 13.6896 26.8125 14.959 26.8125 16.5191C26.8124 18.0793 25.5002 19.3487 23.8875 19.3487Z" fill="#C2410B"/>
<path d="M44.148 8.45795C42.474 8.45795 41.1121 9.70106 41.1121 11.229C41.1121 12.7569 42.474 14 44.148 14C45.8219 14 47.1838 12.7569 47.1838 11.229C47.1837 9.70106 45.8218 8.45795 44.148 8.45795ZM44.148 12.442C43.4153 12.442 42.8191 11.8978 42.8191 11.229C42.8191 10.5602 43.4152 10.016 44.148 10.016C44.8808 10.016 45.4769 10.5602 45.4769 11.229C45.4768 11.8979 44.8807 12.442 44.148 12.442Z" fill="#C2410B"/>
<path d="M46.5623 0.309293L34.151 0.308746C32.2554 0.308746 30.7132 2.03656 30.7132 4.16031V8.54869H25.5956C25.5944 8.54869 25.5935 8.54858 25.5923 8.54858H6.95728C6.95513 8.54858 6.95298 8.54869 6.95064 8.54869H3.64749C1.63624 8.54869 0 10.3814 0 12.6339V37.1793C0 39.4319 1.63624 41.2645 3.64749 41.2645H16.7157L15.5634 46.5067C15.5624 46.5112 15.562 46.5158 15.5612 46.5203C15.5565 46.5432 15.5528 46.5665 15.5495 46.5902C15.548 46.6015 15.5461 46.6128 15.5448 46.6243C15.5425 46.6469 15.5414 46.67 15.5406 46.6934C15.5401 46.7051 15.5391 46.717 15.539 46.7288C15.539 46.7311 15.5387 46.7333 15.5387 46.7355C15.5387 46.7641 15.5403 46.7923 15.5424 46.8202C15.5427 46.8238 15.5425 46.8274 15.5429 46.831C15.5459 46.866 15.551 46.9006 15.5573 46.9345C15.5581 46.9388 15.5594 46.943 15.5603 46.9475C15.5662 46.9767 15.5732 47.0055 15.5814 47.0336C15.5837 47.0415 15.5866 47.0495 15.5892 47.0575C15.5969 47.0816 15.6052 47.1053 15.6146 47.1285C15.6185 47.138 15.6227 47.1475 15.6269 47.1569C15.6363 47.178 15.6461 47.1988 15.6567 47.2191C15.6619 47.229 15.6671 47.2389 15.6727 47.2486C15.6838 47.2682 15.6958 47.2871 15.7082 47.3057C15.7124 47.312 15.7159 47.3189 15.7204 47.3253C15.7224 47.3279 15.7246 47.3304 15.7266 47.333C15.7416 47.354 15.7575 47.3739 15.774 47.3934C15.7784 47.3987 15.7824 47.4042 15.787 47.4094C15.8082 47.4332 15.8304 47.4556 15.8537 47.4768C15.8599 47.4823 15.8663 47.4873 15.8726 47.4927C15.8904 47.508 15.9084 47.5228 15.9272 47.5366C15.9353 47.5425 15.9437 47.5478 15.952 47.5534C15.9699 47.5656 15.988 47.5772 16.0069 47.5877C16.0156 47.5926 16.0242 47.5972 16.033 47.6018C16.0523 47.6118 16.0717 47.6209 16.0917 47.6293C16.1005 47.6331 16.1092 47.6368 16.118 47.6402C16.1387 47.648 16.1598 47.6547 16.1811 47.6608C16.1898 47.6633 16.1982 47.6662 16.2068 47.6683C16.2293 47.6738 16.2522 47.6781 16.2754 47.6815C16.2831 47.6826 16.2908 47.6845 16.2987 47.6854C16.3294 47.6892 16.3606 47.6915 16.3921 47.6915H26.6812H33.4362C33.9077 47.6915 34.2897 47.2635 34.2897 46.7355C34.2897 46.2077 33.9077 45.7797 33.4362 45.7797H27.77L28.7623 41.2649L43.6891 41.2643C45.4886 41.2643 46.9528 39.6252 46.9528 37.6103V29.3415C48.6652 29.1234 50.0001 27.4916 50.0001 25.5164V4.15998C50.0004 2.03656 48.458 0.309293 46.5623 0.309293ZM35.1509 4.15998C35.1509 3.09094 35.9274 2.22118 36.882 2.22118H46.5623C47.5169 2.22107 48.2934 3.09083 48.2934 4.15998V5.28688H35.1509V4.15998ZM35.1508 7.19844H48.2933V22.3572H47.8852L43.5904 17.0638C43.4286 16.8645 43.1992 16.7508 42.9587 16.7508C42.7183 16.7508 42.4889 16.8644 42.3271 17.0638L41.1077 18.5664L38.0798 14.8359C37.9181 14.6368 37.6887 14.523 37.4482 14.523C37.2079 14.523 36.9785 14.6367 36.8168 14.836L35.1509 16.8888V7.19844H35.1508ZM45.5788 22.3572H44.1846L42.2613 19.9876L42.9587 19.1281L45.5788 22.3572ZM35.151 19.6548L35.1848 19.6893L37.4484 16.9001L41.878 22.3572H35.151V19.6548V19.6548ZM32.4202 4.16042C32.4202 3.18577 33.0656 2.3789 33.9021 2.24306C33.6113 2.80809 33.4438 3.46227 33.4438 4.16009V25.5162C33.4438 26.2134 33.611 26.8675 33.9016 27.4322C33.0653 27.296 32.4201 26.4899 32.4201 25.5162V4.16042H32.4202ZM5.40053 30.0631L12.2664 22.1596L21.3941 33.4039H5.40053V30.0631ZM19.7778 28.5695L21.8285 26.0422L27.8015 33.4037H23.7008V33.4038L19.7778 28.5695ZM4.08939 39.3526H3.64749C2.57746 39.3528 1.70695 38.3778 1.70695 37.1793V12.6339C1.70695 11.4354 2.57746 10.4605 3.64749 10.4605H4.08939C3.83714 10.9789 3.69358 11.573 3.69358 12.2037V37.6098C3.69358 38.2405 3.83704 38.8343 4.08939 39.3526ZM26.0123 45.7793H17.4812L18.4735 41.2645H27.0046L26.0123 45.7793ZM45.2462 37.6101C45.2462 38.5707 44.5478 39.3523 43.6894 39.3523H6.95728C6.09888 39.3523 5.40053 38.5708 5.40053 37.6101V35.3157H45.2462V37.6101ZM45.2462 33.4039H30.108L22.4602 23.9781C22.2984 23.7788 22.0691 23.6651 21.8286 23.6651C21.5882 23.6651 21.3588 23.7787 21.197 23.9781L18.6244 27.1486L12.9189 20.1217C12.7605 19.9267 12.5373 19.8135 12.302 19.8091C12.0643 19.8083 11.8399 19.9093 11.6759 20.0983L5.40063 27.3218V12.2038C5.40063 11.2437 6.09722 10.4625 6.95406 10.4606H30.7133V25.5162C30.7133 27.6391 32.2555 29.3664 34.1511 29.3664L45.2462 29.3667V33.4039H45.2462ZM48.2934 25.5161C48.2934 26.5852 47.5169 27.455 46.5623 27.455L36.8754 27.4546C35.9238 27.4506 35.1508 26.5827 35.1508 25.5161V24.2689H48.2933V25.5161H48.2934Z" fill="#C2410B"/>
</g>
</g>
<defs>
<clipPath id="clip0_104_2">
<rect width="50" height="48" fill="white"/>
</clipPath>
<clipPath id="clip1_104_2">
<rect width="50" height="56" fill="white" transform="translate(0 -4)"/>
</clipPath>
</defs>
</svg>
